<svg xmlns="http://www.w3.org/2000/svg" width="28.638" height="28.638" viewBox="0 0 28.638 28.638"><defs><style>.a{fill:#353535;}</style></defs><path class="a" d="M27.994,35.469c0-1.351-.919-1.351-.919-1.351H23.294v2.9h3.547C27.454,37.016,27.994,36.82,27.994,35.469Z" transform="translate(-16.469 -24.122)"/><path class="a" d="M27.075,50.846H23.294v3.472H26.9c.543-.016,1.544-.185,1.544-1.688C28.445,50.828,27.075,50.846,27.075,50.846Z" transform="translate(-16.469 -35.949)"/><path class="a" d="M63.725,44.011a2.324,2.324,0,0,0-2.286,2h4.267A1.933,1.933,0,0,0,63.725,44.011Z" transform="translate(-43.439 -31.117)"/><path class="a" d="M14.319,0A14.319,14.319,0,1,0,28.638,14.319,14.319,14.319,0,0,0,14.319,0Zm3.122,8.452H22.8v1.6h-5.36Zm-2.709,8.39c0,3.965-4.126,3.834-4.126,3.834H3.846V7.686h6.76c2.054,0,3.676,1.134,3.676,3.459A2.255,2.255,0,0,1,12.3,13.617C14.912,13.617,14.732,16.842,14.732,16.842Zm5.58,2.049c2.159,0,2.083-1.4,2.083-1.4h2.286c0,3.709-4.445,3.455-4.445,3.455a4.608,4.608,0,0,1-4.991-4.966s0-4.991,4.991-4.991c5.258,0,4.522,5.638,4.522,5.638H18.026A2.113,2.113,0,0,0,20.312,18.891Z"/></svg>